<?xml version="1.0" encoding="iso-8859-1"?>
<!-- Uploaded to: SVG Repo, www.svgrepo.com, Transformed by: SVG Repo Mixer Tools -->
<svg version="1.1" id="Layer_1" xmlns="http://www.w3.org/2000/svg" xmlns:xlink="http://www.w3.org/1999/xlink" 
	 viewBox="0 0 511.998 511.998" xml:space="preserve">
<rect x="247.312" y="197.681" transform="matrix(-0.7147 -0.6994 0.6994 -0.7147 404.0854 591.4989)" style="fill:#FF4F18;" width="150.729" height="31.315"/>
<path style="fill:#00A5FF;" d="M337.32,119.051c-9.53,18.528-27.119,35.512-50.888,49.103
	c-26.128,14.948-44.938,35.345-53.508,45.71c-3.33,4.04-5.104,6.555-5.167,6.639l-2.38,3.403l-18.288,8.643l-39.144,18.487
	l-47.996-101.598L72.621,49.238l39.625-18.716l17.808-8.413l4.134,0.324c0.104,0.01,3.393,0.23,8.956,0.188
	c13.695-0.084,41.159-1.775,68.748-12.265c7.213-2.735,14.228-4.927,21.034-6.566c48.08-11.649,85.523,3.737,104.448,43.8
	c0.157,0.334,0.313,0.668,0.459,1.002C348.865,72.599,348.688,96.942,337.32,119.051z"/>
<rect x="325.35" y="297.867" transform="matrix(-0.7697 -0.6384 0.6384 -0.7697 362 887.1063)" style="fill:#FF4F18;" width="31.315" height="160.784"/>
<rect x="189.646" y="424.492" style="fill:#006DF3;" width="202.569" height="87.506"/>
<rect x="283.123" y="424.492" style="fill:#005FD1;" width="109.082" height="87.506"/>
<circle style="fill:#FFAD1D;" cx="395.117" cy="287.79" r="28.597"/>
<path style="fill:#FF8900;" d="M395.118,243.54c-24.395,0-44.249,19.844-44.249,44.249s19.854,44.259,44.249,44.259
	c24.405,0,44.259-19.854,44.259-44.259S419.523,243.54,395.118,243.54z M395.118,300.733c-7.129,0-12.933-5.804-12.933-12.944
	c0-7.129,5.804-12.933,12.933-12.933c7.14,0,12.944,5.804,12.944,12.933C408.062,294.929,402.258,300.733,395.118,300.733z"/>
<path style="fill:#E57500;" d="M439.378,287.789c0,24.405-19.854,44.259-44.259,44.259v-31.316c7.14,0,12.944-5.804,12.944-12.944
	c0-7.129-5.804-12.933-12.944-12.933V243.54C419.523,243.54,439.378,263.384,439.378,287.789z"/>
<path style="fill:#0082D2;" d="M337.32,119.051c-9.53,18.528-27.119,35.512-50.888,49.103
	c-26.128,14.948-44.938,35.345-53.508,45.71c-3.33,4.04-5.104,6.555-5.167,6.639l-2.38,3.403l-18.288,8.643l-39.144,18.487
	l-47.996-101.598L337.832,48.591C348.865,72.599,348.688,96.942,337.32,119.051z"/>
<path style="fill:#C8E7F9;" d="M232.925,213.863c-3.33,4.04-5.104,6.555-5.167,6.639l-2.38,3.403l-18.288,8.643l-47.61-101.41
	L112.245,30.522l17.808-8.413l4.134,0.324c0.104,0.01,3.393,0.23,8.956,0.188l44.771,95.366L232.925,213.863z"/>
<path style="fill:#A0D9F5;" d="M232.925,213.863c-3.33,4.04-5.104,6.555-5.167,6.639l-2.38,3.403l-18.288,8.643l-47.61-101.41
	l28.434-13.152L232.925,213.863z"/>
<path style="fill:#FFAD1D;" d="M299.449,468.251c0,9.008-7.307,16.326-16.326,16.326c-9.019,0-16.326-7.317-16.326-16.326
	c0-9.019,7.307-16.326,16.326-16.326C292.142,451.924,299.449,459.231,299.449,468.251z"/>
<path style="fill:#FF8900;" d="M299.449,468.251c0,9.008-7.307,16.326-16.326,16.326v-32.652
	C292.142,451.924,299.449,459.231,299.449,468.251z"/>
</svg>